# xmcd CD database file
#
# Track frame offsets:
#	150
#	32619
#	69499
#	97479
#	112819
#	152807
#	176690
#	202107
#
# Disc length: 2990 seconds
#
# Revision: 0
# Processed by: cddbd v1.5PL3 Copyright (c) Steve Scherf et al.
# Submitted via: CDex 1.50
#
DISCID=6d0bac08
DTITLE=Savoy Jazz - Jazz for a Day in the Park Disk 2
DYEAR=2003
DGENRE=Jazz
TTITLE0=The Drummonds - Nature Boy
TTITLE1=Ralph Moore - 310 Blues
TTITLE2=Bobby Hutcherson - Good Bait
TTITLE3=Jaki Byard - Garr
TTITLE4=Richard "Groove" Holmes - Do Nothing Till You Hear from Me
TTITLE5=Joao Donato - You Can Go
TTITLE6=Arturo O'Farrill - The Girl from Ipanema
TTITLE7=Freddy Cole - A Place in the Sun (Movin' On)
EXTD=YEAR: 2003
EXTT0=
EXTT1=
EXTT2=
EXTT3=
EXTT4=
EXTT5=
EXTT6=
EXTT7=
PLAYORDER=
